<?xml version="1.0" encoding="UTF-8"?><svg xmlns="http://www.w3.org/2000/svg" xmlns:svg="http://www.w3.org/2000/svg" xmlns:xlink="http://www.w3.org/1999/xlink" version="1.2" baseProfile="tiny" viewBox="0 0 225 318" width="225px" height="318px" fill="#d40000"><defs>
        

        <polygon id="suit" points="28.5,0 48.612,29 28.5,58 8.388,29"/>
        <path id="numeral" d="M0,31.505V0H3.11v31.505H0L0,31.505z M12.328,0c-2.994,0-5.4,2.687-5.4,6.021v19.461c0,3.336,2.406,6.021,5.4,6.021h1.746c2.994,0,5.406-2.686,5.406-6.021V6.022C19.481,2.686,17.069,0,14.074,0H12.328z M13.232,2.978c1.768,0,3.19,1.337,3.19,3.002v19.723c0,1.664-1.424,3.006-3.19,3.006c-1.771,0-3.191-1.342-3.191-3.006V5.98C10.039,4.315,11.461,2.978,13.232,2.978z"/>
    </defs>
    
    <!-- Background frame -->
    <path style="fill:#fefefe;stroke:#000000;stroke-width:0.5;" d="M0,10C0.3,4.5,4.5,0.3,9.6,0.3h204c4.5,0.3,9,4.5,9.4,9v298c-0.3,4.5,-4.5,9,-9.4,9H10c-4.5,-0.3,-9.4,-4.5,-9.6,-9z"/>

    
    

    <!-- Big Card -->
    <g class="maxi-card" transform="translate(0,2)">

        <!-- Top Numeral and Suit -->
        <use xlink:href="#numeral" transform="matrix(1,0,0,1,7,12)"/>
        <use xlink:href="#suit" transform="matrix(0.4,0,0,0.4,6,51)"/>

        <!-- Bottom Numeral and Suit -->
        <use xlink:href="#numeral" transform="matrix(-1,0,0,-1,218,302)"/>
        <use xlink:href="#suit" transform="matrix(-0.4,0,0,-0.4,218,263)"/>

        <!-- Card Face -->
        <use xlink:href="#suit" transform="matrix(1,0,0,1,34,28)"/><!-- top left -->
        <use xlink:href="#suit" transform="matrix(1,0,0,1,34,95)"/><!-- center top left -->
        <use xlink:href="#suit" transform="matrix(1,0,0,1,84,64.5)"/><!-- center top offset -->
        <use xlink:href="#suit" transform="matrix(-1,0,0,-1,91,221)"/><!-- center bottom left -->
        <use xlink:href="#suit" transform="matrix(-1,0,0,-1,91,286)"/><!-- bottom left -->

        <use xlink:href="#suit" transform="matrix(1,0,0,1,134,28)"/><!-- top right -->
        <use xlink:href="#suit" transform="matrix(1,0,0,1,134,95)"/><!-- center top right -->
        <use xlink:href="#suit" transform="matrix(-1,0,0,-1,141,248.5)"/><!-- center bottom offset -->
        <use xlink:href="#suit" transform="matrix(-1,0,0,-1,191,221)"/><!-- center bottom right -->
        <use xlink:href="#suit" transform="matrix(-1,0,0,-1,191,286)"/><!-- bottom right -->
    </g>
</svg>