<?xml version="1.0" encoding="UTF-8"?><svg xmlns="http://www.w3.org/2000/svg" xmlns:svg="http://www.w3.org/2000/svg" xmlns:xlink="http://www.w3.org/1999/xlink" version="1.2" baseProfile="tiny" viewBox="0 0 225 318" width="225px" height="318px" fill="#d40000"><defs>
        

        <polygon id="suit" points="28.5,0 48.612,29 28.5,58 8.388,29"/>
        <path id="numeral" d="M0,32.008V29.27h2.661L8.325,0h3.224l6.242,29.27h2.147v2.738h-7.317V29.27h1.977l-0.787-4.484H6.426l-0.57,4.484h1.978v2.738H0z M13.178,21.592L9.971,5.922l-3.008,15.67H13.178z"/>
    </defs>
    
    <!-- Background frame -->
    <path style="fill:#fefefe;stroke:#000000;stroke-width:0.5;" d="M0,10C0.3,4.5,4.5,0.3,9.6,0.3h204c4.5,0.3,9,4.5,9.4,9v298c-0.3,4.5,-4.5,9,-9.4,9H10c-4.5,-0.3,-9.4,-4.5,-9.6,-9z"/>

    
    

    <!-- Big Card -->
    <g class="maxi-card" transform="translate(0,2)">

        <!-- Top Numeral and Suit -->
        <use xlink:href="#numeral" transform="matrix(1,0,0,1,7,12)"/>
        <use xlink:href="#suit" transform="matrix(0.4,0,0,0.4,6,51)"/>

        <!-- Bottom Numeral and Suit -->
        <use xlink:href="#numeral" transform="matrix(-1,0,0,-1,218,302)"/>
        <use xlink:href="#suit" transform="matrix(-0.4,0,0,-0.4,218,263)"/>

        <!-- Card Face -->
        <use xlink:href="#suit" transform="matrix(1,0,0,1,84,128.5)"/><!-- center center -->
    </g>
</svg>