<?xml version="1.0" encoding="UTF-8"?><svg xmlns="http://www.w3.org/2000/svg" xmlns:svg="http://www.w3.org/2000/svg" xmlns:xlink="http://www.w3.org/1999/xlink" version="1.2" baseProfile="tiny" viewBox="0 0 225 318" width="225px" height="318px" fill="#d40000"><defs>
        

        <polygon id="suit" points="28.5,0 48.612,29 28.5,58 8.388,29"/>
        <path id="numeral" d="M0,25.663l2.578-1.862c2.24,3.576,4.741,5.934,8.566,5.528c5.742-0.388,8.119-6.295,6.918-10.752c-1.161-3.991-5.916-5.938-9.694-3.808c-0.892,0.503-1.922,1.123-1.922,1.123l-1.345-2.19l8.869-10.317H4.346v4.271H0.654V0h18.812v2.599c0,0-5.039,5.13-6.707,7.941c4.104,0.148,7.411,2.701,8.596,6.737c0.693,2.124,0.382,6.984-0.523,9.076c-1.512,3.492-5.651,6.325-9.434,6.488C5.052,33.261,1.681,28.893,0,25.663L0,25.663z"/>
    </defs>
    
    <!-- Background frame -->
    <path style="fill:#fefefe;stroke:#000000;stroke-width:0.5;" d="M0,10C0.3,4.5,4.5,0.3,9.6,0.3h204c4.5,0.3,9,4.5,9.4,9v298c-0.3,4.5,-4.5,9,-9.4,9H10c-4.5,-0.3,-9.4,-4.5,-9.6,-9z"/>

    
    

    <!-- Big Card -->
    <g class="maxi-card" transform="translate(0,2)">

        <!-- Top Numeral and Suit -->
        <use xlink:href="#numeral" transform="matrix(1,0,0,1,7,12)"/>
        <use xlink:href="#suit" transform="matrix(0.4,0,0,0.4,6,51)"/>

        <!-- Bottom Numeral and Suit -->
        <use xlink:href="#numeral" transform="matrix(-1,0,0,-1,218,302)"/>
        <use xlink:href="#suit" transform="matrix(-0.4,0,0,-0.4,218,263)"/>

        <!-- Card Face -->
        <use xlink:href="#suit" transform="matrix(1,0,0,1,84,28)"/><!-- top center -->
        <use xlink:href="#suit" transform="matrix(1,0,0,1,84,128.5)"/><!-- center center -->
        <use xlink:href="#suit" transform="matrix(-1,0,0,-1,141,286)"/><!-- bottom center -->
    </g>
</svg>