<?xml version="1.0" encoding="UTF-8"?><svg xmlns="http://www.w3.org/2000/svg" xmlns:xlink="http://www.w3.org/1999/xlink" version="1.2" baseProfile="tiny" viewBox="0 0 225 318" width="225" height="318" fill="#d40000"><defs><path id="suit" d="M28.5 0l20.112 29L28.5 58 8.388 29z"/><path id="numeral" d="M0 32.676l.164-2.018c.51-6.24 1.875-8.348 9.623-14.856 3.76-3.16 4.994-4.717 5.168-6.525.49-4.26-3.352-5.592-5.855-5.613-3.24-.03-6.91 1.91-5.16 6.414L.3 11.144c-.732-4.2.02-8.142 3.427-9.893C8.275-1.02 14.11-.13 17.05 3.46c1.98 2.414 2.43 5.746 1.368 8.355-3.1 6.67-13.62 9.605-14.49 17.318h11.63V24.84h3.428v7.907L0 32.677z"/></defs><path style="fill:#fefefe;stroke:#000000;stroke-width:0.5;" d="M0,10C0.3,4.5,4.5,0.3,9.6,0.3h204c4.5,0.3,9,4.5,9.4,9v298c-0.3,4.5,-4.5,9,-9.4,9H10c-4.5,-0.3,-9.4,-4.5,-9.6,-9z"/><g class="maxi-card" transform="translate(0,2)"><use xlink:href="#numeral" transform="translate(7 12)"/><use xlink:href="#suit" transform="matrix(.4 0 0 .4 6 51)"/><use xlink:href="#numeral" transform="matrix(-1 0 0 -1 218 302)"/><use xlink:href="#suit" transform="matrix(-.4 0 0 -.4 218 263)"/><use xlink:href="#suit" transform="translate(84 28)"/><use xlink:href="#suit" transform="matrix(-1 0 0 -1 141 286)"/></g></svg>