<?xml version="1.0" encoding="UTF-8"?><svg xmlns="http://www.w3.org/2000/svg" xmlns:xlink="http://www.w3.org/1999/xlink" version="1.2" baseProfile="tiny" viewBox="0 0 225 318" width="225" height="318" fill="#d40000"><defs><path id="suit" d="M28.5 0l20.112 29L28.5 58 8.388 29z"/><path id="numeral" d="M4.98 31.887C7.114 20.8 9.39 12.477 15.36 3.44H3.227v3.892H0V0h17.754l2.188 3.44c-6.34 6.797-12.146 28.77-11.12 28.446h-3.84z"/></defs><path style="fill:#fefefe;stroke:#000000;stroke-width:0.5;" d="M0,10C0.3,4.5,4.5,0.3,9.6,0.3h204c4.5,0.3,9,4.5,9.4,9v298c-0.3,4.5,-4.5,9,-9.4,9H10c-4.5,-0.3,-9.4,-4.5,-9.6,-9z"/><g class="maxi-card" transform="translate(0,2)"><use xlink:href="#numeral" transform="translate(7 12)"/><use xlink:href="#suit" transform="matrix(.4 0 0 .4 6 51)"/><use xlink:href="#numeral" transform="matrix(-1 0 0 -1 218 302)"/><use xlink:href="#suit" transform="matrix(-.4 0 0 -.4 218 263)"/><use xlink:href="#suit" transform="translate(34 28)"/><use xlink:href="#suit" transform="translate(134 28)"/><use xlink:href="#suit" transform="translate(84 82.5)"/><use xlink:href="#suit" transform="translate(34 128.5)"/><use xlink:href="#suit" transform="translate(134 128.5)"/><use xlink:href="#suit" transform="matrix(-1 0 0 -1 91 286)"/><use xlink:href="#suit" transform="matrix(-1 0 0 -1 191 286)"/></g></svg>